<svg width="1024" height="1024" viewBox="0 0 1024 1024" fill="none" xmlns="http://www.w3.org/2000/svg">
  <defs>
    <linearGradient id="bg13b" x1="170" y1="170" x2="854" y2="854" gradientUnits="userSpaceOnUse">
      <stop offset="0" stop-color="#2563FF"/>
      <stop offset="0.34" stop-color="#7C3AED"/>
      <stop offset="0.68" stop-color="#EC4899"/>
      <stop offset="1" stop-color="#F59E0B"/>
    </linearGradient>
    <linearGradient id="spiralMain" x1="292" y1="342" x2="728" y2="760" gradientUnits="userSpaceOnUse">
      <stop offset="0" stop-color="#FFFFFF"/>
      <stop offset="1" stop-color="#FDF2F8"/>
    </linearGradient>
    <linearGradient id="spiralInner" x1="368" y1="414" x2="664" y2="694" gradientUnits="userSpaceOnUse">
      <stop offset="0" stop-color="#BAE6FD"/>
      <stop offset="1" stop-color="#E9D5FF"/>
    </linearGradient>
    <linearGradient id="spark13b" x1="676" y1="286" x2="780" y2="390" gradientUnits="userSpaceOnUse">
      <stop offset="0" stop-color="#FDE68A"/>
      <stop offset="0.52" stop-color="#FFFFFF"/>
      <stop offset="1" stop-color="#A7F3D0"/>
    </linearGradient>
  </defs>

  <rect width="1024" height="1024" rx="224" fill="#FFF7ED"/>
  <rect x="176" y="176" width="672" height="672" rx="184" fill="url(#bg13b)"/>

  <path
    d="M623 344C687.05 383.728 730 454.625 730 535.555C730 659.512 629.512 760 505.555 760C404.778 760 321 691.847 292 597"
    stroke="url(#spiralMain)"
    stroke-width="46"
    stroke-linecap="round"
  />
  <path
    d="M595 416C636.582 443.333 664 490.391 664 543.852C664 628.173 595.633 696.539 511.313 696.539C442.464 696.539 385.688 650.973 370 587.5"
    stroke="url(#spiralInner)"
    stroke-width="26"
    stroke-linecap="round"
  />
  <circle cx="515" cy="544" r="46" fill="white"/>

  <path
    d="M726 292L735 323L766 332L735 341L726 372L717 341L686 332L717 323L726 292Z"
    fill="url(#spark13b)"
  />
  <circle cx="774" cy="286" r="12" fill="#A7F3D0"/>
  <circle cx="312" cy="350" r="18" fill="#FDE68A"/>
</svg>
